<svg xmlns="http://www.w3.org/2000/svg" viewBox="0 0 200.66 133.81"><defs><style>.cls-1,.cls-2{fill:#e52421;}.cls-2{font-size:37.55px;stroke:#e52421;stroke-miterlimit:5;stroke-width:2px;font-family:Alba;letter-spacing:0.05em;}</style></defs><title>Recurso 2</title><g id="Capa_2" data-name="Capa 2"><g id="Capa_1-2" data-name="Capa 1"><path class="cls-1" d="M22.5,55.92Q0,55.92,0,37.92t22.5-18h6.82c4.41,0,6.63,1.49,6.68,4.39.51,14.5.35,26.65,0,36-.18,4.9-.46,10.42-4.32,15.29A20.18,20.18,0,0,1,18,82.81c-.85.07-10.8.68-12.83-4.64a7.9,7.9,0,0,1,2.57-8.4c4.3-3.38,10.09.89,13.54-2C22.91,66.45,24.16,63.4,22.5,55.92Zm0-22.61q-9,0-9,4.5t9,4.5Z"/><path class="cls-1" d="M63,46.81v-18q0-4.5,6.75-4.5t6.75,4.5v18q0,22.5-18,22.5t-18-22.5V24.21q.07-4.39,6.75-4.4T54,24.31v22.5q0,9,4.5,9T63,46.81Z"/><path class="cls-1" d="M94.5,60.31q0,4.5-6.75,4.5T81,60.42V37.71q.07-4.4,6.75-4.4t6.75,4.5Z"/><path class="cls-1" d="M146.25,67.06Q144,60.31,144,42.31q0-9-4.5-9t-4.5,9v22.5q0,4.5-6.75,4.5t-6.75-4.5V42.31q0-9-4.5-9t-4.5,9v18q0,4.5-6.75,4.5T99,60.42V42.31q0-22.5,18-22.5,7,0,11.25,3.38,4.29-3.37,11.25-3.38,18,0,18,22.5,0,18,2.25,22.5C161.25,67.81,147.75,71.56,146.25,67.06Z"/><path class="cls-1" d="M186.75,54.83v19q0,4.5-6.75,4.5t-6.75-4.39V54.83Q162,51.11,162,33.31v-4.6q.08-4.39,6.75-4.4t6.75,4.5v4.5q0,9,4.5,9t4.5-9v-9q0-4.5,6.75-4.5c3.12,0,5.15.72,6.11,2.16a4.3,4.3,0,0,1,.64,2.34,89.23,89.23,0,0,1-.06,9.63,2.3,2.3,0,1,0-3.06,3.4,3,3,0,0,0-4.27,1.06,3,3,0,0,0,2.1,3.9,3,3,0,0,0-3.64,1.07A3,3,0,0,0,191,47.42a2.21,2.21,0,1,0-.43,4.39,4.34,4.34,0,0,1-1.92,2.48A4.16,4.16,0,0,1,186.75,54.83Z"/><text class="cls-2" transform="translate(138.26 112.46)">GO</text><path class="cls-1" d="M81.87,18.42c-3-5.08-3.46-6.33-3.45-7.87C78.45,6.38,81.86.29,88,0,94-.26,98.1,5.1,98.5,9.28c.15,1.55-.21,3.05-3.26,8.46-2.67,4.72-5.14,8.43-6.9,10.94C86.65,26.17,84.4,22.69,81.87,18.42ZM88.48,6.06A3.94,3.94,0,1,0,92.42,10,3.94,3.94,0,0,0,88.48,6.06Z"/></g></g></svg>