<svg xmlns="http://www.w3.org/2000/svg" viewBox="0 0 198.1 83.02"><defs><style>.cls-1{fill:#e52421;}</style></defs><title>Recurso 1</title><g id="Capa_2" data-name="Capa 2"><g id="Capa_1-2" data-name="Capa 1"><path class="cls-1" d="M22.5,56.07Q0,56.07,0,38.07t22.5-18h6.82c4.41,0,6.63,1.49,6.68,4.4.51,14.49.35,26.64,0,36-.18,4.89-.46,10.41-4.32,15.28A20.26,20.26,0,0,1,18,83c-.85.06-10.8.67-12.83-4.65a7.9,7.9,0,0,1,2.57-8.4c4.3-3.37,10.09.89,13.54-2C22.91,66.6,24.16,63.55,22.5,56.07Zm0-22.6q-9,0-9,4.5t9,4.5Z"/><path class="cls-1" d="M63,47V29q0-4.5,6.75-4.5T76.5,29V47q0,22.5-18,22.5T40.5,47V24.36Q40.57,20,47.25,20T54,24.47V47q0,9,4.5,9T63,47Z"/><path class="cls-1" d="M81,22q0-4.5,4.5-4.5H90q4.5,0,4.5,4.5v4.5Q94.5,31,90,31H85.5Q81,31,81,26.47Zm13.5,38.5q0,4.5-6.75,4.5T81,60.57V37.86q.07-4.39,6.75-4.39T94.5,38Z"/><path class="cls-1" d="M146.25,67.22Q144,60.47,144,42.47q0-9-4.5-9t-4.5,9V65q0,4.5-6.75,4.5T121.5,65V42.47q0-9-4.5-9t-4.5,9v18q0,4.5-6.75,4.5T99,60.57V42.47Q99,20,117,20q7,0,11.25,3.37Q132.54,20,139.5,20q18,0,18,22.5,0,18,2.25,22.5C161.25,68,147.75,71.72,146.25,67.22Z"/><path class="cls-1" d="M186.75,55V74q0,4.5-6.75,4.5t-6.75-4.4V55Q162,51.26,162,33.47V28.86q.08-4.39,6.75-4.39T175.5,29v4.5q0,9,4.5,9t4.5-9v-9q0-4.5,6.75-4.5c3.12,0,5.15.71,6.11,2.15a4.31,4.31,0,0,1,.64,2.35,89,89,0,0,1-.06,9.62,2.3,2.3,0,1,0-3.06,3.4,3,3,0,0,0-4.27,1.06,3,3,0,0,0,2.1,3.9,3,3,0,0,0-3.64,1.07,3,3,0,0,0,1.93,4,2.21,2.21,0,1,0-.43,4.4,4.36,4.36,0,0,1-1.92,2.47A4.16,4.16,0,0,1,186.75,55Z"/><path class="cls-1" d="M81,12.29c1.22,3.16,12.12,3.2,13.33,0,.59-1.55-1.35-3.18-.36-5.1.7-1.36,2.08-1.29,2.29-2.42a3.24,3.24,0,0,0-3.13-3.33,2.11,2.11,0,0,0-.92.32c-1.25.81-1.09,2.7-1.08,2.83,0-.15.62-2.42-.7-3.74C88.78-.8,85.18.11,84.29,2.18a3.5,3.5,0,0,0,.1,2.65,3.06,3.06,0,0,0-2.46-3.09C80.29,1.63,79,3.83,79.24,5.28c.17,1.07,1.14,1.1,1.76,2.36C81.94,9.54,80.48,10.94,81,12.29Z"/></g></g></svg>